# xmcd
#
# Track frame offsets: 
#        150
#        12645
#        28525
#        39557
#        54702
#        67590
#        83547
#        97357
#        112850
#        122256
#
# Disc length: 1810 seconds
#
# Revision: 1
# Processed by: cddbd v1.5.2PL0 Copyright (c) Steve Scherf et al.
# Submitted via: ExactAudioCopy v0.99pb5
#
DISCID=7407100a
DTITLE=Mid South Boys - Down To Earth
DYEAR=1989
DGENRE=Country
TTITLE0=Broken Chains
TTITLE1=Matter of Time
TTITLE2=Down To Earth
TTITLE3=Sin Met Grace
TTITLE4=Bring A Little Heaven
TTITLE5=He Didn't Lift Me Up To Let Me Down
TTITLE6=Don't Give Up
TTITLE7=Now You See Me (Now You Don't)
TTITLE8=Back to The Basics
TTITLE9=He Delivers
EXTD=YEAR: 1989 ID3G: 2
EXTT0=
EXTT1=
EXTT2=
EXTT3=
EXTT4=
EXTT5=
EXTT6=
EXTT7=
EXTT8=
EXTT9=
PLAYORDER=
